<svg xmlns="http://www.w3.org/2000/svg" viewBox="0 0 1200 900">
  <!-- Background -->
  <rect width="1200" height="900" fill="#f8f9fa" />
  
  <!-- Title -->
  <text x="600" y="50" font-family="Arial" font-size="32" font-weight="bold" text-anchor="middle" fill="#2c3e50">Farm Management Cycle: Current Operations & Tracking</text>
  
  <!-- Section Headers -->
  <rect x="80" y="100" width="240" height="50" rx="10" fill="#3498db" />
  <text x="200" y="133" font-family="Arial" font-size="20" font-weight="bold" text-anchor="middle" fill="white">Winter Planning</text>
  
  <rect x="410" y="100" width="240" height="50" rx="10" fill="#2ecc71" />
  <text x="530" y="133" font-family="Arial" font-size="20" font-weight="bold" text-anchor="middle" fill="white">Spring Operations</text>
  
  <rect x="740" y="100" width="240" height="50" rx="10" fill="#f39c12" />
  <text x="860" y="133" font-family="Arial" font-size="20" font-weight="bold" text-anchor="middle" fill="white">Growing Season</text>
  
  <rect x="410" y="550" width="240" height="50" rx="10" fill="#e74c3c" />
  <text x="530" y="583" font-family="Arial" font-size="20" font-weight="bold" text-anchor="middle" fill="white">Harvest & Post-Harvest</text>
  
  <rect x="740" y="550" width="240" height="50" rx="10" fill="#9b59b6" />
  <text x="860" y="583" font-family="Arial" font-size="20" font-weight="bold" text-anchor="middle" fill="white">Year-Round Activities</text>
  
  <rect x="80" y="550" width="240" height="50" rx="10" fill="#34495e" />
  <text x="200" y="583" font-family="Arial" font-size="20" font-weight="bold" text-anchor="middle" fill="white">Current Systems</text>

  <!-- Winter Planning Activities -->
  <rect x="50" y="180" width="140" height="70" rx="8" fill="#3498db" opacity="0.9" />
  <text x="120" y="205" font-family="Arial" font-size="14" font-weight="bold" text-anchor="middle" fill="white">Financial Review</text>
  <text x="120" y="225" font-family="Arial" font-size="12" text-anchor="middle" fill="white">• Expense analysis</text>
  <text x="120" y="240" font-family="Arial" font-size="12" text-anchor="middle" fill="white">• ROI calculations</text>
  
  <rect x="210" y="180" width="140" height="70" rx="8" fill="#3498db" opacity="0.9" />
  <text x="280" y="205" font-family="Arial" font-size="14" font-weight="bold" text-anchor="middle" fill="white">Crop Planning</text>
  <text x="280" y="225" font-family="Arial" font-size="12" text-anchor="middle" fill="white">• Excel spreadsheets</text>
  <text x="280" y="240" font-family="Arial" font-size="12" text-anchor="middle" fill="white">• Rotation planning</text>
  
  <rect x="50" y="270" width="140" height="70" rx="8" fill="#3498db" opacity="0.9" />
  <text x="120" y="295" font-family="Arial" font-size="14" font-weight="bold" text-anchor="middle" fill="white">Soil Analysis</text>
  <text x="120" y="315" font-family="Arial" font-size="12" text-anchor="middle" fill="white">• Test interpretation</text>
  <text x="120" y="330" font-family="Arial" font-size="12" text-anchor="middle" fill="white">• Nutrient calculations</text>
  
  <rect x="210" y="270" width="140" height="70" rx="8" fill="#3498db" opacity="0.9" />
  <text x="280" y="295" font-family="Arial" font-size="14" font-weight="bold" text-anchor="middle" fill="white">Input Sourcing</text>
  <text x="280" y="315" font-family="Arial" font-size="12" text-anchor="middle" fill="white">• Request quotes</text>
  <text x="280" y="330" font-family="Arial" font-size="12" text-anchor="middle" fill="white">• Compare suppliers</text>
  
  <rect x="50" y="360" width="140" height="70" rx="8" fill="#3498db" opacity="0.9" />
  <text x="120" y="385" font-family="Arial" font-size="14" font-weight="bold" text-anchor="middle" fill="white">Research</text>
  <text x="120" y="405" font-family="Arial" font-size="12" text-anchor="middle" fill="white">• Winter meetings</text>
  <text x="120" y="420" font-family="Arial" font-size="12" text-anchor="middle" fill="white">• New techniques</text>
  
  <rect x="210" y="360" width="140" height="70" rx="8" fill="#3498db" opacity="0.9" />
  <text x="280" y="385" font-family="Arial" font-size="14" font-weight="bold" text-anchor="middle" fill="white">Equipment Prep</text>
  <text x="280" y="405" font-family="Arial" font-size="12" text-anchor="middle" fill="white">• Maintenance plans</text>
  <text x="280" y="420" font-family="Arial" font-size="12" text-anchor="middle" fill="white">• Parts ordering</text>

  <!-- Spring Operations Activities -->
  <rect x="380" y="180" width="140" height="70" rx="8" fill="#2ecc71" opacity="0.9" />
  <text x="450" y="205" font-family="Arial" font-size="14" font-weight="bold" text-anchor="middle" fill="white">Field Preparation</text>
  <text x="450" y="225" font-family="Arial" font-size="12" text-anchor="middle" fill="white">• Field inspections</text>
  <text x="450" y="240" font-family="Arial" font-size="12" text-anchor="middle" fill="white">• Drainage checks</text>
  
  <rect x="540" y="180" width="140" height="70" rx="8" fill="#2ecc71" opacity="0.9" />
  <text x="610" y="205" font-family="Arial" font-size="14" font-weight="bold" text-anchor="middle" fill="white">Fertility Planning</text>
  <text x="610" y="225" font-family="Arial" font-size="12" text-anchor="middle" fill="white">• Tank configurations</text>
  <text x="610" y="240" font-family="Arial" font-size="12" text-anchor="middle" fill="white">• Blend optimization</text>
  
  <rect x="380" y="270" width="140" height="70" rx="8" fill="#2ecc71" opacity="0.9" />
  <text x="450" y="295" font-family="Arial" font-size="14" font-weight="bold" text-anchor="middle" fill="white">Field Mapping</text>
  <text x="450" y="315" font-family="Arial" font-size="12" text-anchor="middle" fill="white">• Climate FieldView</text>
  <text x="450" y="330" font-family="Arial" font-size="12" text-anchor="middle" fill="white">• Management zones</text>
  
  <rect x="540" y="270" width="140" height="70" rx="8" fill="#2ecc71" opacity="0.9" />
  <text x="610" y="295" font-family="Arial" font-size="14" font-weight="bold" text-anchor="middle" fill="white">Seeding Operations</text>
  <text x="610" y="315" font-family="Arial" font-size="12" text-anchor="middle" fill="white">• Recording dates</text>
  <text x="610" y="330" font-family="Arial" font-size="12" text-anchor="middle" fill="white">• Input tracking</text>

  <!-- Growing Season Activities -->
  <rect x="710" y="180" width="140" height="70" rx="8" fill="#f39c12" opacity="0.9" />
  <text x="780" y="205" font-family="Arial" font-size="14" font-weight="bold" text-anchor="middle" fill="white">Field Scouting</text>
  <text x="780" y="225" font-family="Arial" font-size="12" text-anchor="middle" fill="white">• 5-6 scouting trips</text>
  <text x="780" y="240" font-family="Arial" font-size="12" text-anchor="middle" fill="white">• Pest observations</text>
  
  <rect x="870" y="180" width="140" height="70" rx="8" fill="#f39c12" opacity="0.9" />
  <text x="940" y="205" font-family="Arial" font-size="14" font-weight="bold" text-anchor="middle" fill="white">Testing</text>
  <text x="940" y="225" font-family="Arial" font-size="12" text-anchor="middle" fill="white">• Tissue sampling</text>
  <text x="940" y="240" font-family="Arial" font-size="12" text-anchor="middle" fill="white">• Soil biology tests</text>
  
  <rect x="710" y="270" width="140" height="70" rx="8" fill="#f39c12" opacity="0.9" />
  <text x="780" y="295" font-family="Arial" font-size="14" font-weight="bold" text-anchor="middle" fill="white">Crop Monitoring</text>
  <text x="780" y="315" font-family="Arial" font-size="12" text-anchor="middle" fill="white">• Development stages</text>
  <text x="780" y="330" font-family="Arial" font-size="12" text-anchor="middle" fill="white">• Yield estimations</text>
  
  <rect x="870" y="270" width="140" height="70" rx="8" fill="#f39c12" opacity="0.9" />
  <text x="940" y="295" font-family="Arial" font-size="14" font-weight="bold" text-anchor="middle" fill="white">Trial Assessment</text>
  <text x="940" y="315" font-family="Arial" font-size="12" text-anchor="middle" fill="white">• Test plot tracking</text>
  <text x="940" y="330" font-family="Arial" font-size="12" text-anchor="middle" fill="white">• Treatment comparisons</text>

  <!-- Harvest Activities -->
  <rect x="380" y="630" width="140" height="70" rx="8" fill="#e74c3c" opacity="0.9" />
  <text x="450" y="655" font-family="Arial" font-size="14" font-weight="bold" text-anchor="middle" fill="white">Yield Tracking</text>
  <text x="450" y="675" font-family="Arial" font-size="12" text-anchor="middle" fill="white">• Climate FieldView</text>
  <text x="450" y="690" font-family="Arial" font-size="12" text-anchor="middle" fill="white">• Trial performance</text>
  
  <rect x="540" y="630" width="140" height="70" rx="8" fill="#e74c3c" opacity="0.9" />
  <text x="610" y="655" font-family="Arial" font-size="14" font-weight="bold" text-anchor="middle" fill="white">Grain Management</text>
  <text x="610" y="675" font-family="Arial" font-size="12" text-anchor="middle" fill="white">• Bin tracking</text>
  <text x="610" y="690" font-family="Arial" font-size="12" text-anchor="middle" fill="white">• Bills of lading</text>
  
  <rect x="380" y="720" width="140" height="70" rx="8" fill="#e74c3c" opacity="0.9" />
  <text x="450" y="745" font-family="Arial" font-size="14" font-weight="bold" text-anchor="middle" fill="white">Post-Harvest Work</text>
  <text x="450" y="765" font-family="Arial" font-size="12" text-anchor="middle" fill="white">• Fall field work</text>
  <text x="450" y="780" font-family="Arial" font-size="12" text-anchor="middle" fill="white">• Soil sampling</text>
  
  <rect x="540" y="720" width="140" height="70" rx="8" fill="#e74c3c" opacity="0.9" />
  <text x="610" y="745" font-family="Arial" font-size="14" font-weight="bold" text-anchor="middle" fill="white">Analytics</text>
  <text x="610" y="765" font-family="Arial" font-size="12" text-anchor="middle" fill="white">• ROI calculations</text>
  <text x="610" y="780" font-family="Arial" font-size="12" text-anchor="middle" fill="white">• Trial evaluation</text>

  <!-- Year-Round Activities -->
  <rect x="710" y="630" width="140" height="70" rx="8" fill="#9b59b6" opacity="0.9" />
  <text x="780" y="655" font-family="Arial" font-size="14" font-weight="bold" text-anchor="middle" fill="white">Daily Observations</text>
  <text x="780" y="675" font-family="Arial" font-size="12" text-anchor="middle" fill="white">• Weather recording</text>
  <text x="780" y="690" font-family="Arial" font-size="12" text-anchor="middle" fill="white">• Field conditions</text>
  
  <rect x="870" y="630" width="140" height="70" rx="8" fill="#9b59b6" opacity="0.9" />
  <text x="940" y="655" font-family="Arial" font-size="14" font-weight="bold" text-anchor="middle" fill="white">Equipment Tracking</text>
  <text x="940" y="675" font-family="Arial" font-size="12" text-anchor="middle" fill="white">• Performance monitoring</text>
  <text x="940" y="690" font-family="Arial" font-size="12" text-anchor="middle" fill="white">• Maintenance logs</text>
  
  <rect x="710" y="720" width="140" height="70" rx="8" fill="#9b59b6" opacity="0.9" />
  <text x="780" y="745" font-family="Arial" font-size="14" font-weight="bold" text-anchor="middle" fill="white">Marketing</text>
  <text x="780" y="765" font-family="Arial" font-size="12" text-anchor="middle" fill="white">• Contract tracking</text>
  <text x="780" y="780" font-family="Arial" font-size="12" text-anchor="middle" fill="white">• Delivery scheduling</text>
  
  <rect x="870" y="720" width="140" height="70" rx="8" fill="#9b59b6" opacity="0.9" />
  <text x="940" y="745" font-family="Arial" font-size="14" font-weight="bold" text-anchor="middle" fill="white">Farm Journaling</text>
  <text x="940" y="765" font-family="Arial" font-size="12" text-anchor="middle" fill="white">• Daily activities</text>
  <text x="940" y="780" font-family="Arial" font-size="12" text-anchor="middle" fill="white">• Employee management</text>

  <!-- Current Systems -->
  <rect x="50" y="630" width="140" height="70" rx="8" fill="#34495e" opacity="0.9" />
  <text x="120" y="655" font-family="Arial" font-size="14" font-weight="bold" text-anchor="middle" fill="white">Digital Tools</text>
  <text x="120" y="675" font-family="Arial" font-size="12" text-anchor="middle" fill="white">• Excel spreadsheets</text>
  <text x="120" y="690" font-family="Arial" font-size="12" text-anchor="middle" fill="white">• Climate FieldView</text>
  
  <rect x="210" y="630" width="140" height="70" rx="8" fill="#34495e" opacity="0.9" />
  <text x="280" y="655" font-family="Arial" font-size="14" font-weight="bold" text-anchor="middle" fill="white">Paper Systems</text>
  <text x="280" y="675" font-family="Arial" font-size="12" text-anchor="middle" fill="white">• Field notebooks</text>
  <text x="280" y="690" font-family="Arial" font-size="12" text-anchor="middle" fill="white">• Printed reports</text>
  
  <rect x="50" y="720" width="140" height="70" rx="8" fill="#34495e" opacity="0.9" />
  <text x="120" y="745" font-family="Arial" font-size="14" font-weight="bold" text-anchor="middle" fill="white">Communication</text>
  <text x="120" y="765" font-family="Arial" font-size="12" text-anchor="middle" fill="white">• Email archives</text>
  <text x="120" y="780" font-family="Arial" font-size="12" text-anchor="middle" fill="white">• Text messages</text>
  
  <rect x="210" y="720" width="140" height="70" rx="8" fill="#34495e" opacity="0.9" />
  <text x="280" y="745" font-family="Arial" font-size="14" font-weight="bold" text-anchor="middle" fill="white">Data Siloing</text>
  <text x="280" y="765" font-family="Arial" font-size="12" text-anchor="middle" fill="white">• Multiple systems</text>
  <text x="280" y="780" font-family="Arial" font-size="12" text-anchor="middle" fill="white">• Manual transfers</text>

  <!-- Central Farm Management Hub -->
  <circle cx="600" cy="450" r="80" fill="#7f8c8d" opacity="0.9" />
  <text x="600" y="435" font-family="Arial" font-size="18" font-weight="bold" text-anchor="middle" fill="white">5,000 Acres</text>
  <text x="600" y="460" font-family="Arial" font-size="18" font-weight="bold" text-anchor="middle" fill="white">20 Fields</text>
  <text x="600" y="480" font-family="Arial" font-size="14" text-anchor="middle" fill="white">Current Management</text>

  <!-- Flow Arrows -->
  <!-- Winter to Spring -->
  <path d="M320 240 C360 240, 360 240, 380 215" stroke="#34495e" stroke-width="3" fill="none" marker-end="url(#arrowhead)" />
  
  <!-- Spring to Growing -->
  <path d="M680 240 C700 240, 700 240, 710 215" stroke="#34495e" stroke-width="3" fill="none" marker-end="url(#arrowhead)" />
  
  <!-- Growing to Harvest -->
  <path d="M940 350 C980 450, 650 550, 610 630" stroke="#34495e" stroke-width="3" fill="none" marker-end="url(#arrowhead)" />
  
  <!-- Harvest to Winter -->
  <path d="M380 700 C300 650, 200 550, 200 430" stroke="#34495e" stroke-width="3" fill="none" marker-end="url(#arrowhead)" />
  
  <!-- Year-Round Activities to Central -->
  <path d="M780 650 C700 600, 650 500, 650 450" stroke="#9b59b6" stroke-width="2" fill="none" stroke-dasharray="5,5" />
  
  <!-- Central to All -->
  <path d="M560 400 C500 350, 400 300, 280 240" stroke="#7f8c8d" stroke-width="2" fill="none" stroke-dasharray="5,5" />
  <path d="M640 400 C700 350, 750 300, 780 240" stroke="#7f8c8d" stroke-width="2" fill="none" stroke-dasharray="5,5" />
  <path d="M560 500 C500 550, 400 600, 280 700" stroke="#7f8c8d" stroke-width="2" fill="none" stroke-dasharray="5,5" />
  
  <!-- Siloing Pain Point -->
  <path d="M250 670 C400 550, 450 500, 600 500" stroke="#e74c3c" stroke-width="2" fill="none" stroke-dasharray="5,5" />
  <text x="350" y="600" font-family="Arial" font-size="14" font-style="italic" fill="#e74c3c" transform="rotate(-20, 350, 600)">Manual data transfer</text>

  <!-- Definitions for markers -->
  <defs>
    <marker id="arrowhead" markerWidth="10" markerHeight="7" refX="10" refY="3.5" orient="auto">
      <polygon points="0 0, 10 3.5, 0 7" fill="#34495e" />
    </marker>
  </defs>
  
  <!-- Legend -->
  <rect x="1000" y="400" width="160" height="180" fill="#f8f9fa" stroke="#bdc3c7" stroke-width="1" rx="5" />
  <text x="1080" y="425" font-family="Arial" font-size="16" font-weight="bold" text-anchor="middle" fill="#2c3e50">Legend</text>
  
  <rect x="1020" y="440" width="20" height="20" fill="#3498db" rx="3" />
  <text x="1050" y="455" font-family="Arial" font-size="14" fill="#34495e" x-anchor="start">Winter</text>
  
  <rect x="1020" y="470" width="20" height="20" fill="#2ecc71" rx="3" />
  <text x="1050" y="485" font-family="Arial" font-size="14" fill="#34495e" x-anchor="start">Spring</text>
  
  <rect x="1020" y="500" width="20" height="20" fill="#f39c12" rx="3" />
  <text x="1050" y="515" font-family="Arial" font-size="14" fill="#34495e" x-anchor="start">Growing</text>
  
  <rect x="1020" y="530" width="20" height="20" fill="#e74c3c" rx="3" />
  <text x="1050" y="545" font-family="Arial" font-size="14" fill="#34495e" x-anchor="start">Harvest</text>
  
  <rect x="1020" y="560" width="20" height="20" fill="#9b59b6" rx="3" />
  <text x="1050" y="575" font-family="Arial" font-size="14" fill="#34495e" x-anchor="start">Year-Round</text>
</svg>